<svg id="Warstwa_1" data-name="Warstwa 1" xmlns="http://www.w3.org/2000/svg" viewBox="0 0 1115.24 300.66"><defs><style>.cls-1{fill:#3c3d3f;}.cls-2{fill:#071a6d;}</style></defs><title>SpeQtral_</title><path class="cls-1" d="M149.51,186.9a27,27,0,0,0,4.59-15.29c0-6.59-1.76-11.91-5.24-15.83a31.88,31.88,0,0,0-12.39-8.62,134.06,134.06,0,0,0-18.08-5.3c-5.3-1.3-9.53-2.48-12.56-3.49a20.87,20.87,0,0,1-7.31-4,7.74,7.74,0,0,1-2.68-6.13,10.25,10.25,0,0,1,4.83-8.87c3.33-2.3,8.55-3.47,15.51-3.47a49.62,49.62,0,0,1,13.34,1.93,56.05,56.05,0,0,1,13.25,5.66l1,.58,6.5-16-.68-.46A50.22,50.22,0,0,0,134.25,101a71.9,71.9,0,0,0-17.93-2.28c-8.71,0-16.19,1.35-22.23,4s-10.73,6.37-13.77,11a27.35,27.35,0,0,0-4.59,15.36c0,6.68,1.76,12.07,5.23,16a31.1,31.1,0,0,0,12.33,8.63,147.87,147.87,0,0,0,18.29,5.37c5.31,1.3,9.53,2.48,12.56,3.49a20.28,20.28,0,0,1,7.3,4.07,7.94,7.94,0,0,1,2.69,6.21c0,3.51-1.62,6.26-4.95,8.42s-8.74,3.35-15.81,3.35a53,53,0,0,1-17.29-3,49,49,0,0,1-14.52-7.63l-1-.8-7.14,16,.56.49c4.2,3.63,10,6.58,17.14,8.76a76.38,76.38,0,0,0,22.26,3.27c8.7,0,16.21-1.35,22.3-4S146.46,191.44,149.51,186.9Z"/><path class="cls-1" d="M264.29,116.88a33.57,33.57,0,0,0-15-12.45c-6.42-2.85-14-4.29-22.66-4.29H185.24V200.4h20.25V172h21.18c8.62,0,16.24-1.44,22.66-4.29a33.34,33.34,0,0,0,15-12.52,35,35,0,0,0,5.21-19.14A34.88,34.88,0,0,0,264.29,116.88Zm-21,32.89c-3.92,3.21-9.8,4.83-17.48,4.83H205.49v-37h20.34c7.68,0,13.56,1.62,17.47,4.83s5.81,7.67,5.81,13.68S247.21,146.58,243.31,149.77Z"/><polygon class="cls-1" points="365.68 158.01 365.68 140.99 318.23 140.99 318.23 117.44 371.71 117.44 371.71 100.14 297.98 100.14 297.98 200.4 373.68 200.4 373.68 183.1 318.23 183.1 318.23 158.01 365.68 158.01"/><polygon class="cls-1" points="700.13 100.26 614.75 100.26 614.75 117.7 647.31 117.7 647.31 200.53 667.56 200.53 667.56 117.7 700.13 117.7 700.13 100.26"/><path class="cls-1" d="M772.37,171.82l.28,0,20,28.73h22.1l-23-32.83.55-.25a32.69,32.69,0,0,0,14.25-11.58,34.42,34.42,0,0,0,5.57-19.65A34.88,34.88,0,0,0,807,117a33.51,33.51,0,0,0-15-12.45c-6.42-2.85-14-4.3-22.66-4.3H727.92V200.53h20.25V171.89h21.18C770.59,171.89,771.58,171.87,772.37,171.82Zm-24.2-16.95V117.71h20.34c7.68,0,13.55,1.62,17.47,4.82s5.81,7.68,5.81,13.69S789.89,146.73,786,150s-9.79,4.89-17.47,4.89Z"/><path class="cls-1" d="M933.64,200.53V145.06c0-9.75-1.86-18.2-5.52-25.1a37.2,37.2,0,0,0-15.65-15.79c-6.67-3.52-14.57-5.31-23.49-5.31s-16.82,1.79-23.49,5.31A37.13,37.13,0,0,0,849.85,120c-3.67,6.9-5.52,15.34-5.52,25.1v55.47h20V175.26h49.09v25.27ZM864.3,158V143.38c0-8.77,2.17-15.45,6.45-19.87s10.36-6.65,18.09-6.65,13.82,2.24,18.1,6.65,6.45,11.1,6.45,19.87V158Z"/><polygon class="cls-1" points="968.42 100.26 968.42 200.53 1040.05 200.53 1040.05 183.09 988.67 183.09 988.67 100.26 968.42 100.26"/><path class="cls-2" d="M595.43,170.31A101.7,101.7,0,0,0,598,133.85a99.89,99.89,0,0,0-10.72-35,101.79,101.79,0,0,0-22.54-28.82,100.56,100.56,0,0,0-31.35-18.91,102,102,0,0,0-36-6.39,100.2,100.2,0,0,0-67.06,26.17l-1.64,1.49L461,88.06l.71-.45a68,68,0,0,1,81.45,6.72,68,68,0,0,1,22.43,43.17,69.84,69.84,0,0,1-1.7,24.71,68.2,68.2,0,0,1-27.56,39.13c-7.77-8-15.6-15.93-23.28-23.74l-19.82-20L419.42,82.51l-1.06,1.33a113.57,113.57,0,0,0-13,21.77l-.13.29h0a101,101,0,0,0-2.54,71.81,100.79,100.79,0,0,0,46.14,55.37,100.6,100.6,0,0,0,71.29,10.35,99.46,99.46,0,0,0,24-8.71c10.46,8.11,24.09,18.61,38,29.07a5.75,5.75,0,0,0,7.43-.43,5.73,5.73,0,0,0,1.79-4,5.63,5.63,0,0,0-1.58-4.09c-6.43-6.73-13.24-13.43-19.82-19.91-3.45-3.4-7-6.9-10.47-10.37A100.72,100.72,0,0,0,580,203.52h0A100.08,100.08,0,0,0,595.43,170.31ZM439.74,152.23l33.91,27.17,22.07,17.51q9.09,7.17,18.19,14.33l-1,.23a68.9,68.9,0,0,1-24.71.91,67.35,67.35,0,0,1-23.33-8,68.24,68.24,0,0,1-19-15.82,67.7,67.7,0,0,1-15.61-44.08C433.42,147.16,436.63,149.74,439.74,152.23Z"/></svg>