<svg id="Warstwa_1" data-name="Warstwa 1" xmlns="http://www.w3.org/2000/svg" viewBox="0 0 295.15 300.66"><defs><style>.cls-1{fill:#0a1e76;}</style></defs><title>SpeQtral_</title><path class="cls-1" d="M244.12,170.31a101.48,101.48,0,0,0,2.54-36.46,99.89,99.89,0,0,0-10.72-35A101.79,101.79,0,0,0,213.4,70.05a100.44,100.44,0,0,0-31.35-18.91,102,102,0,0,0-36-6.39A100.2,100.2,0,0,0,79,70.92l-1.64,1.49,32.3,15.65.71-.45a68,68,0,0,1,81.46,6.72,68.08,68.08,0,0,1,22.43,43.17,70.08,70.08,0,0,1-1.71,24.71A68.2,68.2,0,0,1,185,201.34c-7.77-8-15.6-15.93-23.28-23.74l-19.82-20L68.11,82.51l-1,1.33A112.77,112.77,0,0,0,54,105.61l-.13.29h0a101,101,0,0,0-2.54,71.81,100.79,100.79,0,0,0,46.14,55.37,100.6,100.6,0,0,0,71.29,10.35,99.46,99.46,0,0,0,24-8.71c10.47,8.11,24.09,18.61,38,29.07a5.76,5.76,0,0,0,9.21-4.47,5.63,5.63,0,0,0-1.58-4.09c-6.43-6.73-13.23-13.43-19.82-19.91-3.45-3.4-7-6.9-10.47-10.37a100.72,100.72,0,0,0,20.61-21.44h0A99.88,99.88,0,0,0,244.12,170.31ZM88.44,152.23l33.9,27.17,22.07,17.51q9.09,7.17,18.2,14.33l-1,.23a68.9,68.9,0,0,1-24.71.91,67.35,67.35,0,0,1-23.33-8,68.2,68.2,0,0,1-19-15.82A67.64,67.64,0,0,1,79,144.52C82.11,147.16,85.32,149.74,88.44,152.23Z"/></svg>